<svg width="159" height="260" viewBox="0 0 159 260" fill="none" xmlns="http://www.w3.org/2000/svg">
<rect x="0.763184" y="34.3451" width="154.688" height="8.10684" fill="#F4C569"/>
<rect x="0.763184" y="0.56665" width="157.607" height="8.10684" fill="#6CD0CF"/>
<rect x="0.763184" y="8.67358" width="14.5932" height="86.473" fill="#FE9554"/>
<rect x="42.5972" y="8.67358" width="13.6203" height="86.473" fill="#FE9554"/>
<rect x="111.672" y="8.67358" width="12.6475" height="86.473" fill="#FE9554"/>
<rect x="146.695" y="8.67358" width="11.6746" height="86.473" fill="#FE9554"/>
<rect x="79.5664" y="8.67358" width="12.6475" height="86.473" fill="#FE9554"/>
<rect x="3.68213" y="11.3757" width="7.78305" height="10.8091" fill="#76DADE"/>
<rect x="45.5161" y="11.3757" width="7.78305" height="10.8091" fill="#76DADE"/>
<rect x="82.4854" y="11.3757" width="7.78305" height="10.8091" fill="#76DADE"/>
<rect x="114.59" y="11.3757" width="7.78305" height="10.8091" fill="#76DADE"/>
<rect x="148.641" y="11.3757" width="7.78305" height="10.8091" fill="#76DADE"/>
<rect x="3.68213" y="28.9404" width="7.78305" height="10.8091" fill="#76DADE"/>
<rect x="45.5161" y="28.9404" width="7.78305" height="10.8091" fill="#76DADE"/>
<rect x="82.4854" y="28.9404" width="7.78305" height="10.8091" fill="#76DADE"/>
<rect x="114.59" y="28.9404" width="7.78305" height="10.8091" fill="#76DADE"/>
<rect x="148.641" y="28.9404" width="7.78305" height="10.8091" fill="#76DADE"/>
<rect x="3.68213" y="46.5051" width="7.78305" height="10.8091" fill="#76DADE"/>
<rect x="45.5161" y="46.5051" width="7.78305" height="10.8091" fill="#76DADE"/>
<rect x="82.4854" y="46.5051" width="7.78305" height="10.8091" fill="#76DADE"/>
<rect x="114.59" y="46.5051" width="7.78305" height="10.8091" fill="#76DADE"/>
<rect x="148.641" y="46.5051" width="7.78305" height="10.8091" fill="#76DADE"/>
<rect x="3.68213" y="64.0701" width="7.78305" height="10.8091" fill="#76DADE"/>
<rect x="45.5161" y="64.0701" width="7.78305" height="10.8091" fill="#76DADE"/>
<rect x="82.4854" y="64.0701" width="7.78305" height="10.8091" fill="#76DADE"/>
<rect x="114.59" y="64.0701" width="7.78305" height="10.8091" fill="#76DADE"/>
<rect x="148.641" y="64.0701" width="7.78305" height="10.8091" fill="#76DADE"/>
<rect x="0.763184" y="89.1942" width="154.688" height="8.10684" fill="#F4C569"/>
<rect x="0.763184" y="55.4158" width="157.607" height="8.10684" fill="#6CD0CF"/>
<rect x="0.763184" y="63.5227" width="14.5932" height="86.473" fill="#FE9554"/>
<rect x="42.5972" y="63.5227" width="13.6203" height="86.473" fill="#FE9554"/>
<rect x="111.672" y="63.5227" width="12.6475" height="86.473" fill="#FE9554"/>
<rect x="146.695" y="63.5227" width="11.6746" height="86.473" fill="#FE9554"/>
<rect x="79.5664" y="63.5227" width="12.6475" height="86.473" fill="#FE9554"/>
<rect x="3.68213" y="66.2249" width="7.78305" height="10.8091" fill="#76DADE"/>
<rect x="45.5161" y="66.2249" width="7.78305" height="10.8091" fill="#76DADE"/>
<rect x="82.4854" y="66.2249" width="7.78305" height="10.8091" fill="#76DADE"/>
<rect x="114.59" y="66.2249" width="7.78305" height="10.8091" fill="#76DADE"/>
<rect x="148.641" y="66.2249" width="7.78305" height="10.8091" fill="#76DADE"/>
<rect x="3.68213" y="83.7893" width="7.78305" height="10.8091" fill="#76DADE"/>
<rect x="45.5161" y="83.7893" width="7.78305" height="10.8091" fill="#76DADE"/>
<rect x="82.4854" y="83.7893" width="7.78305" height="10.8091" fill="#76DADE"/>
<rect x="114.59" y="83.7893" width="7.78305" height="10.8091" fill="#76DADE"/>
<rect x="148.641" y="83.7893" width="7.78305" height="10.8091" fill="#76DADE"/>
<rect x="3.68213" y="101.354" width="7.78305" height="10.8091" fill="#76DADE"/>
<rect x="45.5161" y="101.354" width="7.78305" height="10.8091" fill="#76DADE"/>
<rect x="82.4854" y="101.354" width="7.78305" height="10.8091" fill="#76DADE"/>
<rect x="114.59" y="101.354" width="7.78305" height="10.8091" fill="#76DADE"/>
<rect x="148.641" y="101.354" width="7.78305" height="10.8091" fill="#76DADE"/>
<rect x="3.68213" y="118.919" width="7.78305" height="10.8091" fill="#76DADE"/>
<rect x="45.5161" y="118.919" width="7.78305" height="10.8091" fill="#76DADE"/>
<rect x="82.4854" y="118.919" width="7.78305" height="10.8091" fill="#76DADE"/>
<rect x="114.59" y="118.919" width="7.78305" height="10.8091" fill="#76DADE"/>
<rect x="148.641" y="118.919" width="7.78305" height="10.8091" fill="#76DADE"/>
<rect x="0.763184" y="142.43" width="154.688" height="8.10684" fill="#F4C569"/>
<rect x="0.763184" y="108.652" width="157.607" height="8.10684" fill="#6CD0CF"/>
<rect x="0.763184" y="116.759" width="14.5932" height="86.473" fill="#FE9554"/>
<rect x="42.5972" y="116.759" width="13.6203" height="86.473" fill="#FE9554"/>
<rect x="111.672" y="116.759" width="12.6475" height="86.473" fill="#FE9554"/>
<rect x="146.695" y="116.759" width="11.6746" height="86.473" fill="#FE9554"/>
<rect x="79.5664" y="116.759" width="12.6475" height="86.473" fill="#FE9554"/>
<rect x="3.68213" y="119.461" width="7.78305" height="10.8091" fill="#76DADE"/>
<rect x="45.5161" y="119.461" width="7.78305" height="10.8091" fill="#76DADE"/>
<rect x="82.4854" y="119.461" width="7.78305" height="10.8091" fill="#76DADE"/>
<rect x="114.59" y="119.461" width="7.78305" height="10.8091" fill="#76DADE"/>
<rect x="148.641" y="119.461" width="7.78305" height="10.8091" fill="#76DADE"/>
<rect x="3.68213" y="137.025" width="7.78305" height="10.8091" fill="#76DADE"/>
<rect x="45.5161" y="137.025" width="7.78305" height="10.8091" fill="#76DADE"/>
<rect x="82.4854" y="137.025" width="7.78305" height="10.8091" fill="#76DADE"/>
<rect x="114.59" y="137.025" width="7.78305" height="10.8091" fill="#76DADE"/>
<rect x="148.641" y="137.025" width="7.78305" height="10.8091" fill="#76DADE"/>
<rect x="3.68213" y="154.59" width="7.78305" height="10.8091" fill="#76DADE"/>
<rect x="45.5161" y="154.59" width="7.78305" height="10.8091" fill="#76DADE"/>
<rect x="82.4854" y="154.59" width="7.78305" height="10.8091" fill="#76DADE"/>
<rect x="114.59" y="154.59" width="7.78305" height="10.8091" fill="#76DADE"/>
<rect x="148.641" y="154.59" width="7.78305" height="10.8091" fill="#76DADE"/>
<rect x="3.68213" y="172.155" width="7.78305" height="10.8091" fill="#76DADE"/>
<rect x="45.5161" y="172.155" width="7.78305" height="10.8091" fill="#76DADE"/>
<rect x="82.4854" y="172.155" width="7.78305" height="10.8091" fill="#76DADE"/>
<rect x="114.59" y="172.155" width="7.78305" height="10.8091" fill="#76DADE"/>
<rect x="148.641" y="172.155" width="7.78305" height="10.8091" fill="#76DADE"/>
<rect x="0.763184" y="198.892" width="154.688" height="8.10684" fill="#F4C569"/>
<rect x="0.763184" y="165.114" width="157.607" height="8.10684" fill="#6CD0CF"/>
<rect x="0.763184" y="173.221" width="14.5932" height="86.473" fill="#FE9554"/>
<rect x="42.5972" y="173.221" width="13.6203" height="86.473" fill="#FE9554"/>
<rect x="111.672" y="173.221" width="12.6475" height="86.473" fill="#FE9554"/>
<rect x="146.695" y="173.221" width="11.6746" height="86.473" fill="#FE9554"/>
<rect x="79.5664" y="173.221" width="12.6475" height="86.473" fill="#FE9554"/>
<rect x="3.68213" y="175.923" width="7.78305" height="10.8091" fill="#76DADE"/>
<rect x="45.5161" y="175.923" width="7.78305" height="10.8091" fill="#76DADE"/>
<rect x="82.4854" y="175.923" width="7.78305" height="10.8091" fill="#76DADE"/>
<rect x="114.59" y="175.923" width="7.78305" height="10.8091" fill="#76DADE"/>
<rect x="148.641" y="175.923" width="7.78305" height="10.8091" fill="#76DADE"/>
<rect x="3.68213" y="193.488" width="7.78305" height="10.8091" fill="#76DADE"/>
<rect x="45.5161" y="193.488" width="7.78305" height="10.8091" fill="#76DADE"/>
<rect x="82.4854" y="193.488" width="7.78305" height="10.8091" fill="#76DADE"/>
<rect x="114.59" y="193.488" width="7.78305" height="10.8091" fill="#76DADE"/>
<rect x="148.641" y="193.488" width="7.78305" height="10.8091" fill="#76DADE"/>
<rect x="3.68213" y="211.052" width="7.78305" height="10.8091" fill="#76DADE"/>
<rect x="45.5161" y="211.052" width="7.78305" height="10.8091" fill="#76DADE"/>
<rect x="82.4854" y="211.052" width="7.78305" height="10.8091" fill="#76DADE"/>
<rect x="114.59" y="211.052" width="7.78305" height="10.8091" fill="#76DADE"/>
<rect x="148.641" y="211.052" width="7.78305" height="10.8091" fill="#76DADE"/>
<rect x="3.68213" y="228.617" width="7.78305" height="10.8091" fill="#76DADE"/>
<rect x="45.5161" y="228.617" width="7.78305" height="10.8091" fill="#76DADE"/>
<rect x="82.4854" y="228.617" width="7.78305" height="10.8091" fill="#76DADE"/>
<rect x="114.59" y="228.617" width="7.78305" height="10.8091" fill="#76DADE"/>
<rect x="148.641" y="228.617" width="7.78305" height="10.8091" fill="#76DADE"/>
</svg>
