<svg width="232" height="160" viewBox="0 0 232 160" fill="none" xmlns="http://www.w3.org/2000/svg">
<rect x="62.4395" y="16.2267" width="155.78" height="96.7925" fill="#F7ECDA"/>
<rect x="72.1001" y="25.906" width="13.2836" height="9.67925" fill="#66D2D1"/>
<rect x="72.1001" y="42.0381" width="13.2836" height="9.67925" fill="#66D2D1"/>
<rect x="72.1001" y="58.1702" width="13.2836" height="9.67925" fill="#66D2D1"/>
<rect x="72.1001" y="74.3022" width="13.2836" height="9.67925" fill="#66D2D1"/>
<rect x="72.1001" y="90.4343" width="13.2836" height="9.67925" fill="#66D2D1"/>
<rect x="92.6294" y="25.906" width="13.2836" height="9.67925" fill="#66D2D1"/>
<rect x="92.6294" y="42.0381" width="13.2836" height="9.67925" fill="#66D2D1"/>
<rect x="92.6294" y="58.1702" width="13.2836" height="9.67925" fill="#66D2D1"/>
<rect x="92.6294" y="74.3022" width="13.2836" height="9.67925" fill="#66D2D1"/>
<rect x="92.6294" y="90.4343" width="13.2836" height="9.67925" fill="#66D2D1"/>
<rect x="113.158" y="25.906" width="13.2836" height="9.67925" fill="#66D2D1"/>
<rect x="113.158" y="42.0381" width="13.2836" height="9.67925" fill="#66D2D1"/>
<rect x="113.158" y="58.1702" width="13.2836" height="9.67925" fill="#66D2D1"/>
<rect x="113.158" y="74.3022" width="13.2836" height="9.67925" fill="#66D2D1"/>
<rect x="113.158" y="90.4343" width="13.2836" height="9.67925" fill="#66D2D1"/>
<rect x="133.688" y="25.906" width="13.2836" height="9.67925" fill="#66D2D1"/>
<rect x="133.688" y="42.0381" width="13.2836" height="9.67925" fill="#66D2D1"/>
<rect x="133.688" y="58.1702" width="13.2836" height="9.67925" fill="#66D2D1"/>
<rect x="133.688" y="74.3022" width="13.2836" height="9.67925" fill="#66D2D1"/>
<rect x="133.688" y="90.4343" width="13.2836" height="9.67925" fill="#66D2D1"/>
<rect x="154.217" y="25.906" width="13.2836" height="9.67925" fill="#66D2D1"/>
<rect x="154.217" y="42.0381" width="13.2836" height="9.67925" fill="#66D2D1"/>
<rect x="154.217" y="58.1702" width="13.2836" height="9.67925" fill="#66D2D1"/>
<rect x="154.217" y="74.3022" width="13.2836" height="9.67925" fill="#66D2D1"/>
<rect x="154.217" y="90.4343" width="13.2836" height="9.67925" fill="#66D2D1"/>
<rect x="174.746" y="25.906" width="13.2836" height="9.67925" fill="#66D2D1"/>
<rect x="174.746" y="42.0381" width="13.2836" height="9.67925" fill="#66D2D1"/>
<rect x="174.746" y="58.1702" width="13.2836" height="9.67925" fill="#66D2D1"/>
<rect x="174.746" y="74.3022" width="13.2836" height="9.67925" fill="#66D2D1"/>
<rect x="174.746" y="90.4343" width="13.2836" height="9.67925" fill="#66D2D1"/>
<rect x="195.275" y="25.906" width="13.2836" height="9.67925" fill="#66D2D1"/>
<rect x="195.275" y="42.0381" width="13.2836" height="9.67925" fill="#66D2D1"/>
<rect x="195.275" y="58.1702" width="13.2836" height="9.67925" fill="#66D2D1"/>
<rect x="195.275" y="74.3022" width="13.2836" height="9.67925" fill="#66D2D1"/>
<rect x="195.275" y="90.4343" width="13.2836" height="9.67925" fill="#66D2D1"/>
<rect x="218.219" y="16.2268" width="13.2836" height="96.7925" fill="#FE9554"/>
<rect x="62.4395" y="0.0947266" width="169.063" height="16.1321" fill="#BEF3F9"/>
<rect x="0.152344" y="63.0098" width="191.309" height="96.7925" fill="#F7ECDA"/>
<rect x="12.0161" y="72.689" width="16.3131" height="9.67925" fill="#66D2D1"/>
<rect x="12.0161" y="88.821" width="16.3131" height="9.67925" fill="#66D2D1"/>
<rect x="12.0161" y="104.953" width="16.3131" height="9.67925" fill="#66D2D1"/>
<rect x="12.0161" y="121.085" width="16.3131" height="9.67925" fill="#66D2D1"/>
<rect x="12.0161" y="137.217" width="16.3131" height="9.67925" fill="#66D2D1"/>
<rect x="37.2275" y="72.689" width="16.3131" height="9.67925" fill="#66D2D1"/>
<rect x="37.2275" y="88.821" width="16.3131" height="9.67925" fill="#66D2D1"/>
<rect x="37.2275" y="104.953" width="16.3131" height="9.67925" fill="#66D2D1"/>
<rect x="37.2275" y="121.085" width="16.3131" height="9.67925" fill="#66D2D1"/>
<rect x="37.2275" y="137.217" width="16.3131" height="9.67925" fill="#66D2D1"/>
<rect x="62.439" y="72.689" width="16.3131" height="9.67925" fill="#66D2D1"/>
<rect x="62.439" y="88.821" width="16.3131" height="9.67925" fill="#66D2D1"/>
<rect x="62.439" y="104.953" width="16.3131" height="9.67925" fill="#66D2D1"/>
<rect x="62.439" y="121.085" width="16.3131" height="9.67925" fill="#66D2D1"/>
<rect x="62.439" y="137.217" width="16.3131" height="9.67925" fill="#66D2D1"/>
<rect x="87.6504" y="72.689" width="16.3131" height="9.67925" fill="#66D2D1"/>
<rect x="87.6504" y="88.821" width="16.3131" height="9.67925" fill="#66D2D1"/>
<rect x="87.6504" y="104.953" width="16.3131" height="9.67925" fill="#66D2D1"/>
<rect x="87.6504" y="121.085" width="16.3131" height="9.67925" fill="#66D2D1"/>
<rect x="87.6504" y="137.217" width="16.3131" height="9.67925" fill="#66D2D1"/>
<rect x="112.861" y="72.689" width="16.3131" height="9.67925" fill="#66D2D1"/>
<rect x="112.861" y="88.821" width="16.3131" height="9.67925" fill="#66D2D1"/>
<rect x="112.861" y="104.953" width="16.3131" height="9.67925" fill="#66D2D1"/>
<rect x="112.861" y="121.085" width="16.3131" height="9.67925" fill="#66D2D1"/>
<rect x="112.861" y="137.217" width="16.3131" height="9.67925" fill="#66D2D1"/>
<rect x="138.072" y="72.689" width="16.3131" height="9.67925" fill="#66D2D1"/>
<rect x="138.072" y="88.821" width="16.3131" height="9.67925" fill="#66D2D1"/>
<rect x="138.072" y="104.953" width="16.3131" height="9.67925" fill="#66D2D1"/>
<rect x="138.072" y="121.085" width="16.3131" height="9.67925" fill="#66D2D1"/>
<rect x="138.072" y="137.217" width="16.3131" height="9.67925" fill="#66D2D1"/>
<rect x="163.284" y="72.689" width="16.3131" height="9.67925" fill="#66D2D1"/>
<rect x="163.284" y="88.821" width="16.3131" height="9.67925" fill="#66D2D1"/>
<rect x="163.284" y="104.953" width="16.3131" height="9.67925" fill="#66D2D1"/>
<rect x="163.284" y="121.085" width="16.3131" height="9.67925" fill="#66D2D1"/>
<rect x="163.284" y="137.217" width="16.3131" height="9.67925" fill="#66D2D1"/>
<rect x="191.461" y="63.0098" width="16.3131" height="96.7925" fill="#FE9554"/>
<rect x="0.152344" y="46.8777" width="207.622" height="16.1321" fill="#BEF3F9"/>
</svg>
